<?xml version="1.0" encoding="UTF-8"?>
<svg id="Layer_2" data-name="Layer 2" xmlns="http://www.w3.org/2000/svg" viewBox="0 0 448 143.12">
  <defs>
    <style>
      .cls-1 {
        fill: #fff;
      }

      .cls-2 {
        fill: #e53700;
      }

      .cls-3 {
        fill: #281f61;
      }

      .cls-4 {
        fill: #241d5a;
      }
    </style>
  </defs>
  <g id="Layer_1-2" data-name="Layer 1">
    <g>
      <g>
        <path class="cls-4" d="m66.5,4.8h-23.7c5.29,2.45,8.84,7.89,9.11,14.03.02.35,0,.7-.02,1.05h13.64c10.56,0,15.89,5.14,15.89,13.94,0,4.31-1.31,7.74-3.92,10.11,5.86,1.37,10.21,6.12,11.55,11.98,6.32-5.01,9.86-12.59,9.86-22.09,0-17.94-12.48-29.02-32.41-29.02Z"/>
        <path class="cls-4" d="m140.61,22.39v16.45c-1.39-.11-2.45-.23-3.73-.23-9.17,0-15.25,5.37-15.25,17.14v29.02h-16.63V23.3h15.89v8.11c4.05-5.94,10.88-9.02,19.73-9.02Z"/>
        <path class="cls-4" d="m140.71,54.04c0-18.51,13.33-31.64,31.56-31.64s31.46,13.14,31.46,31.64-13.22,31.65-31.46,31.65-31.56-13.14-31.56-31.65Zm46.17,0c0-10.62-6.29-17.02-14.61-17.02s-14.71,6.4-14.71,17.02,6.4,17.02,14.71,17.02,14.61-6.4,14.61-17.02Z"/>
        <path class="cls-4" d="m208.74,45.47h30.18v14.28h-30.18v-14.28Z"/>
        <path class="cls-4" d="m281.56,81.8c-3.41,2.63-8.42,3.88-13.43,3.88-13.65,0-21.43-7.43-21.43-22.05V9.71h16.63v14.97h14.18v13.71h-14.18v25.02c0,5.25,2.56,8.11,7.04,8.11,2.45,0,4.9-.8,6.82-2.29l4.37,12.57Z"/>
        <path class="cls-2" d="m342.34,23.3v61.46h-15.89v-7.08c-4.16,5.37-10.24,8-17.91,8-16.21,0-28.68-12.34-28.68-31.65s12.48-31.64,28.68-31.64c7.04,0,13.01,2.4,17.17,7.43v-6.51h16.63Zm-16.31,30.73c0-10.62-6.4-17.02-14.61-17.02s-14.71,6.4-14.71,17.02,6.4,17.02,14.71,17.02,14.61-6.4,14.61-17.02Z"/>
        <polyline class="cls-4" points="369.31 84.77 369.31 0 352.68 0 352.68 84.77"/>
        <path class="cls-4" d="m409.72,60.66l-8,8.45v15.65h-16.63V0h16.63v47.98l24.31-24.68h19.83l-23.88,26.05,26.02,35.41h-20.15l-18.13-24.11Z"/>
      </g>
      <path class="cls-2" d="m35.2,5.11h.68c7.57,0,13.72,6.15,13.72,13.72v74.28h-.73c-7.54,0-13.67-6.12-13.67-13.67V5.11h0Z"/>
      <path class="cls-2" d="m50.56,8.31h.64v74.31c0,7.55-6.13,13.69-13.69,13.69h-.71V22.06c0-7.59,6.16-13.76,13.76-13.76Z" transform="translate(-8.31 96.31) rotate(-90)"/>
      <g>
        <path class="cls-2" d="m291.39,54.92c-.32-3.65,1-6.87,3.09-9.81s4.99-5.62,8.05-7.44c7.34-4.36,14.89,3.17,19.66,8.02,2.61,2.65,4.63,5.65,5.07,9.42.41,3.46-.39,6.98-2.34,9.88-4.14,6.15-12.62,8.35-19.57,6.72-7.97-1.87-13.82-8.46-15.2-16.46-.23-1.33-1.87-2.08-3.08-1.75-1.41.39-1.98,1.74-1.75,3.08,1.51,8.81,7.93,16.3,16.34,19.27s19.42,1,25.72-5.96c6.29-6.96,6.53-17.63.78-24.97-1.47-1.88-3.2-3.53-4.93-5.17s-3.61-3.31-5.62-4.7c-3.96-2.75-8.92-4.38-13.73-3.29-2.78.63-5.11,2.32-7.3,4.08-1.9,1.53-3.68,3.24-5.2,5.15-3.17,3.96-5.45,8.75-5,13.94.12,1.35,1.07,2.5,2.5,2.5,1.26,0,2.62-1.15,2.5-2.5h0Z"/>
        <path class="cls-1" d="m323.4,68.09c1.67-1.69,3.03-3.69,3.95-5.88,3.22-7.69,1.39-16.24-4.53-21.87-6.38-6.07-16.26-7.05-23.71-2.36-1.5.94-2.83,2.06-4,3.32-.09.1-.18.2-.27.3-.13.15-.27.31-.4.46-.5.6-.96,1.24-1.39,1.89-.68,1.04-1.23,2.15-1.7,3.31h0s0,0,0,0c-.22.55-.41,1.11-.58,1.69h0c-1.86,6.29-.46,13.04,3.75,18.06,2.93,3.49,7,5.85,11.48,6.65.48.09,1.6.6,1.73,1.07l-.5,6.35c-.03.35.42.51.62.23m6.62-28.48c-1.33-.98-1.15-2.96.32-3.69.69-.34,1.56-.27,2.18.19,1.32.98,1.15,2.96-.32,3.69-.69.35-1.56.27-2.18-.19Zm-5.37,4.5c-1.32-.98-1.15-2.96.32-3.69.69-.34,1.56-.27,2.18.19,1.32.98,1.15,2.96-.32,3.69-.69.34-1.56.27-2.18-.19Zm-5.37,4.51c-1.33-.98-1.16-2.96.32-3.69.69-.34,1.56-.27,2.18.19,1.32.98,1.15,2.96-.32,3.69-.69.35-1.56.27-2.18-.19Z"/>
        <path class="cls-1" d="m307.01,63.06c4.25-3.97,8.5-7.95,12.75-11.92.96-.9.97-2.64,0-3.54-1.03-.94-2.51-.96-3.54,0-4.25,3.97-8.5,7.95-12.75,11.92-.96.9-.97,2.64,0,3.54,1.03.94,2.51.96,3.54,0h0Z"/>
      </g>
      <g>
        <path class="cls-3" d="m41.25,110.5h4.31v28.32h16.34v4.02h-20.65v-32.34Z"/>
        <path class="cls-3" d="m83.37,136.28l2.24,2.86c-2.03,2.59-5.17,3.97-8.97,3.97-7.37,0-12.29-5.22-12.29-12.52s4.83-12.47,11.47-12.47c6.25,0,11.13,4.71,11.25,12.01l-18.15,3.79c1.16,3.37,4.01,5.31,7.85,5.31,2.67,0,4.92-.97,6.6-2.96Zm-15.01-5.91v.46l14.62-2.96c-.73-3.51-3.45-6.01-7.16-6.01-4.35,0-7.46,3.37-7.46,8.5Z"/>
        <path class="cls-3" d="m105.41,141.41c-1.25,1.16-3.15,1.71-5,1.71-4.61,0-7.24-2.73-7.24-7.67v-22.46h4.14v5.36h6.55v3.65h-6.55v13.26c0,2.63,1.25,4.11,3.58,4.11,1.21,0,2.37-.42,3.23-1.16l1.29,3.19Z"/>
        <path class="cls-3" d="m114.76,111.42c0,.88-.13,1.57-.69,3.28l-2.07,6.47h-2.72l1.6-6.88c-1.08-.42-1.81-1.48-1.81-2.86,0-1.85,1.25-3.14,2.89-3.14s2.8,1.34,2.8,3.14Z"/>
        <path class="cls-3" d="m117.61,140.25l1.73-3.51c1.94,1.48,5.05,2.54,8.02,2.54,3.84,0,5.43-1.25,5.43-3.33,0-5.5-14.45-.74-14.45-10.49,0-4.39,3.66-7.35,9.53-7.35,2.98,0,6.34.83,8.32,2.22l-1.77,3.51c-2.07-1.43-4.35-1.94-6.6-1.94-3.62,0-5.39,1.43-5.39,3.37,0,5.78,14.49,1.06,14.49,10.58,0,4.44-3.79,7.25-9.87,7.25-3.79,0-7.55-1.25-9.44-2.87Z"/>
        <path class="cls-3" d="m166.77,141.41c-1.25,1.16-3.15,1.71-5,1.71-4.61,0-7.24-2.73-7.24-7.67v-22.46h4.14v5.36h6.55v3.65h-6.55v13.26c0,2.63,1.25,4.11,3.58,4.11,1.21,0,2.37-.42,3.23-1.16l1.29,3.19Z"/>
        <path class="cls-3" d="m193.07,118.35v24.49h-3.97v-3.88c-1.85,2.77-4.79,4.16-8.15,4.16-6.68,0-11.56-5.04-11.56-12.52s4.87-12.47,11.56-12.47c3.23,0,6.08,1.29,7.98,3.93v-3.7h4.14Zm-4.1,12.24c0-5.22-3.32-8.59-7.68-8.59s-7.72,3.37-7.72,8.59,3.32,8.64,7.72,8.64,7.68-3.42,7.68-8.64Z"/>
        <path class="cls-3" d="m201.43,135.63v-27.08h4.14v26.71c0,2.63,1.16,4.11,3.54,4.11.78,0,1.55-.23,2.03-.46l.22,3.65c-.95.37-1.98.55-2.98.55-4.44,0-6.94-2.77-6.94-7.49Z"/>
        <path class="cls-3" d="m224.68,131.43l-4.74,4.71v6.7h-4.14v-34.28h4.14v21.99l12.46-12.2h5l-9.62,10.12,10.56,14.37h-5.09l-8.58-11.41Z"/>
        <path class="cls-2" d="m276.68,128.75v14.09h-4.14v-13.58c0-4.8-2.24-7.16-6.17-7.16-4.4,0-7.24,2.82-7.24,8.13v12.61h-4.14v-24.49h3.97v3.7c1.68-2.5,4.61-3.93,8.24-3.93,5.56,0,9.49,3.42,9.49,10.63Z"/>
        <path class="cls-2" d="m306.17,118.35v24.49h-3.92v-3.7c-1.68,2.54-4.53,3.97-7.76,3.97-5.91,0-9.83-3.47-9.83-10.67v-14.09h4.14v13.58c0,4.81,2.24,7.21,6.17,7.21,4.31,0,7.07-2.86,7.07-8.13v-12.66h4.14Z"/>
        <path class="cls-2" d="m326.61,141.41c-1.25,1.16-3.15,1.71-5,1.71-4.61,0-7.24-2.73-7.24-7.67v-22.46h4.14v5.36h6.55v3.65h-6.55v13.26c0,2.63,1.25,4.11,3.58,4.11,1.21,0,2.37-.42,3.23-1.16l1.29,3.19Z"/>
        <path class="cls-2" d="m344.42,118.12v4.3c-.35-.05-.65-.05-.95-.05-4.44,0-7.2,2.91-7.2,8.27v12.2h-4.14v-24.49h3.97v4.11c1.47-2.86,4.31-4.34,8.32-4.34Z"/>
        <path class="cls-2" d="m349.29,110.77c0-1.62,1.21-2.91,2.8-2.91s2.8,1.25,2.8,2.82c0,1.66-1.16,2.96-2.8,2.96s-2.8-1.25-2.8-2.86Zm.73,7.58h4.14v24.49h-4.14v-24.49Z"/>
        <path class="cls-2" d="m374.6,141.41c-1.25,1.16-3.15,1.71-5,1.71-4.61,0-7.25-2.73-7.25-7.67v-22.46h4.14v5.36h6.55v3.65h-6.55v13.26c0,2.63,1.25,4.11,3.58,4.11,1.21,0,2.37-.42,3.23-1.16l1.29,3.19Z"/>
        <path class="cls-2" d="m379.39,110.77c0-1.62,1.21-2.91,2.8-2.91s2.8,1.25,2.8,2.82c0,1.66-1.16,2.96-2.8,2.96s-2.8-1.25-2.8-2.86Zm.73,7.58h4.14v24.49h-4.14v-24.49Z"/>
        <path class="cls-2" d="m390.55,130.59c0-7.3,5.04-12.47,11.9-12.47s11.86,5.17,11.86,12.47-5,12.52-11.86,12.52-11.9-5.22-11.9-12.52Zm19.58,0c0-5.22-3.28-8.59-7.67-8.59s-7.72,3.37-7.72,8.59,3.32,8.64,7.72,8.64,7.67-3.42,7.67-8.64Z"/>
        <path class="cls-2" d="m442.26,128.75v14.09h-4.14v-13.58c0-4.8-2.24-7.16-6.17-7.16-4.4,0-7.24,2.82-7.24,8.13v12.61h-4.14v-24.49h3.97v3.7c1.68-2.5,4.61-3.93,8.24-3.93,5.56,0,9.49,3.42,9.49,10.63Z"/>
      </g>
    </g>
  </g>
</svg>