<svg id="Layer_1" viewBox="0 0 128 128" xmlns="http://www.w3.org/2000/svg" data-name="Layer 1"><path d="m55.43066 80.74756a2.00022 2.00022 0 0 0 1.13867-3.835 25.84439 25.84439 0 0 1 -17.48242-17.48141 1.99961 1.99961 0 1 0 -3.834 1.1377 29.82952 29.82952 0 0 0 20.17775 20.17871z"/><path d="m91.39941 58.08252a1.998 1.998 0 0 0 -2.48633 1.34863 25.84439 25.84439 0 0 1 -17.48242 17.48145 2.00022 2.00022 0 1 0 1.13867 3.835 29.82953 29.82953 0 0 0 20.17774-20.17875 1.99991 1.99991 0 0 0 -1.34766-2.48633z"/><path d="m71.43066 27.0874a25.84439 25.84439 0 0 1 17.48243 17.48145 1.99961 1.99961 0 1 0 3.834-1.1377 29.82953 29.82953 0 0 0 -20.17775-20.17871 2.00022 2.00022 0 0 0 -1.13867 3.835z"/><path d="m36.60059 45.91748a1.9984 1.9984 0 0 0 2.48633-1.34863 25.84439 25.84439 0 0 1 17.48242-17.48145 2.00022 2.00022 0 0 0 -1.13867-3.835 29.82952 29.82952 0 0 0 -20.17774 20.17875 1.99991 1.99991 0 0 0 1.34766 2.48633z"/><path d="m118.73 112h-1.35c-2.31-10.15-9.49-20.48-14.83-23.32a.94516.94516 0 0 1 -.49-.68 1.03692 1.03692 0 0 1 .26-.86 52 52 0 1 0 -76.64 0 1.03692 1.03692 0 0 1 .26.86.94516.94516 0 0 1 -.49.68c-5.34 2.84-12.52 13.17-14.83 23.32h-1.35a6.27361 6.27361 0 0 0 -6.27 6.27v5.6a4.13121 4.13121 0 0 0 4.13 4.13h113.74a4.13121 4.13121 0 0 0 4.13-4.13v-5.6a6.27361 6.27361 0 0 0 -6.27-6.27zm-54.73-96a36 36 0 1 1 -36 36 36.04137 36.04137 0 0 1 36-36zm32 86a2.00591 2.00591 0 0 1 -2 2h-6a2 2 0 0 1 0-4h6a2.00587 2.00587 0 0 1 2 2zm-20 0a4 4 0 1 1 -4-4 3.99891 3.99891 0 0 1 4 4zm-16 0a4 4 0 1 1 -4-4 3.99891 3.99891 0 0 1 4 4zm-18 0a2.00591 2.00591 0 0 1 -2 2h-6a2 2 0 0 1 0-4h6a2.00587 2.00587 0 0 1 2 2zm64 15h-84a2 2 0 0 1 0-4h84a2 2 0 0 1 0 4z"/><path d="m62 46a4.98352 4.98352 0 0 1 -9.41125 2.30353 12.05037 12.05037 0 1 0 6.02625-7.01245 4.99082 4.99082 0 0 1 3.385 4.70892z"/></svg>